<svg width="50" height="50" viewBox="0 0 50 50" fill="none" xmlns="http://www.w3.org/2000/svg">
    <rect width="50" height="50" rx="10" fill="#1B4452" fill-opacity="0.9"/>
    <path d="M23.3333 26.6666H14.9999C14.5277 26.6666 14.1321 26.5066 13.8133 26.1866C13.4944 25.8666 13.3344 25.471 13.3333 24.9999C13.3321 24.5288 13.4921 24.1333 13.8133 23.8133C14.1344 23.4933 14.5299 23.3333 14.9999 23.3333H23.3333V14.9999C23.3333 14.5277 23.4933 14.1321 23.8133 13.8133C24.1333 13.4944 24.5288 13.3344 24.9999 13.3333C25.471 13.3321 25.8671 13.4921 26.1883 13.8133C26.5094 14.1344 26.6688 14.5299 26.6666 14.9999V23.3333H34.9999C35.4721 23.3333 35.8683 23.4933 36.1883 23.8133C36.5083 24.1333 36.6677 24.5288 36.6666 24.9999C36.6655 25.471 36.5055 25.8671 36.1866 26.1883C35.8677 26.5094 35.4721 26.6688 34.9999 26.6666H26.6666V34.9999C26.6666 35.4721 26.5066 35.8683 26.1866 36.1883C25.8666 36.5083 25.471 36.6677 24.9999 36.6666C24.5288 36.6655 24.1333 36.5055 23.8133 36.1866C23.4933 35.8677 23.3333 35.4721 23.3333 34.9999V26.6666Z" fill="#76EADA" fill-opacity="0.8"/>
</svg>
