<svg width="136" height="60" viewBox="0 0 136 60" fill="none" xmlns="http://www.w3.org/2000/svg">
    <rect width="136" height="60" rx="10" fill="#76EADA" fill-opacity="0.6"/>
    <path d="M60.52 29.82C61.0267 29.9 61.4867 30.1067 61.9 30.44C62.3267 30.7733 62.66 31.1867 62.9 31.68C63.1533 32.1733 63.28 32.7 63.28 33.26C63.28 33.9667 63.1 34.6067 62.74 35.18C62.38 35.74 61.8533 36.1867 61.16 36.52C60.48 36.84 59.6733 37 58.74 37H53.54V23.06H58.54C59.4867 23.06 60.2933 23.22 60.96 23.54C61.6267 23.8467 62.1267 24.2667 62.46 24.8C62.7933 25.3333 62.96 25.9333 62.96 26.6C62.96 27.4267 62.7333 28.1133 62.28 28.66C61.84 29.1933 61.2533 29.58 60.52 29.82ZM55.36 29.08H58.42C59.2733 29.08 59.9333 28.88 60.4 28.48C60.8667 28.08 61.1 27.5267 61.1 26.82C61.1 26.1133 60.8667 25.56 60.4 25.16C59.9333 24.76 59.26 24.56 58.38 24.56H55.36V29.08ZM58.58 35.5C59.4867 35.5 60.1933 35.2867 60.7 34.86C61.2067 34.4333 61.46 33.84 61.46 33.08C61.46 32.3067 61.1933 31.7 60.66 31.26C60.1267 30.8067 59.4133 30.58 58.52 30.58H55.36V35.5H58.58ZM65.1256 31.48C65.1256 30.36 65.3523 29.38 65.8056 28.54C66.259 27.6867 66.879 27.0267 67.6656 26.56C68.4656 26.0933 69.3523 25.86 70.3256 25.86C71.2856 25.86 72.119 26.0667 72.8256 26.48C73.5323 26.8933 74.059 27.4133 74.4056 28.04V26.04H76.2456V37H74.4056V34.96C74.0456 35.6 73.5056 36.1333 72.7856 36.56C72.079 36.9733 71.2523 37.18 70.3056 37.18C69.3323 37.18 68.4523 36.94 67.6656 36.46C66.879 35.98 66.259 35.3067 65.8056 34.44C65.3523 33.5733 65.1256 32.5867 65.1256 31.48ZM74.4056 31.5C74.4056 30.6733 74.239 29.9533 73.9056 29.34C73.5723 28.7267 73.119 28.26 72.5456 27.94C71.9856 27.6067 71.3656 27.44 70.6856 27.44C70.0056 27.44 69.3856 27.6 68.8256 27.92C68.2656 28.24 67.819 28.7067 67.4856 29.32C67.1523 29.9333 66.9856 30.6533 66.9856 31.48C66.9856 32.32 67.1523 33.0533 67.4856 33.68C67.819 34.2933 68.2656 34.7667 68.8256 35.1C69.3856 35.42 70.0056 35.58 70.6856 35.58C71.3656 35.58 71.9856 35.42 72.5456 35.1C73.119 34.7667 73.5723 34.2933 73.9056 33.68C74.239 33.0533 74.4056 32.3267 74.4056 31.5ZM78.6413 31.5C78.6413 30.3667 78.8679 29.38 79.3213 28.54C79.7746 27.6867 80.4013 27.0267 81.2013 26.56C82.0146 26.0933 82.9413 25.86 83.9813 25.86C85.3279 25.86 86.4346 26.1867 87.3013 26.84C88.1813 27.4933 88.7613 28.4 89.0413 29.56H87.0813C86.8946 28.8933 86.5279 28.3667 85.9813 27.98C85.4479 27.5933 84.7813 27.4 83.9813 27.4C82.9413 27.4 82.1013 27.76 81.4613 28.48C80.8213 29.1867 80.5013 30.1933 80.5013 31.5C80.5013 32.82 80.8213 33.84 81.4613 34.56C82.1013 35.28 82.9413 35.64 83.9813 35.64C84.7813 35.64 85.4479 35.4533 85.9813 35.08C86.5146 34.7067 86.8813 34.1733 87.0813 33.48H89.0413C88.7479 34.6 88.1613 35.5 87.2813 36.18C86.4013 36.8467 85.3013 37.18 83.9813 37.18C82.9413 37.18 82.0146 36.9467 81.2013 36.48C80.4013 36.0133 79.7746 35.3533 79.3213 34.5C78.8679 33.6467 78.6413 32.6467 78.6413 31.5ZM97.5897 37L93.2897 32.16V37H91.4697V22.2H93.2897V30.9L97.5097 26.04H100.05L94.8897 31.5L100.07 37H97.5897Z" fill="white"/>
    <path d="M36 40L26 30L36 20" stroke="white" stroke-width="2"/>
</svg>
