<svg width="346" height="50" viewBox="0 0 346 50" fill="none" xmlns="http://www.w3.org/2000/svg">
    <rect width="346" height="50" rx="10" fill="#76EADA" fill-opacity="0.6"/>
    <path d="M47.598 19.13V22.98H52.768V25.422H47.598V29.492H53.428V32H44.518V16.622H53.428V19.13H47.598ZM62.959 32L60.451 28.216L58.229 32H54.929L58.911 25.884L54.885 19.812H58.361L60.847 23.574L63.091 19.812H66.391L62.387 25.884L66.435 32H62.959ZM71.1878 21.572C71.5838 21.0147 72.1265 20.5527 72.8158 20.186C73.5198 19.8047 74.3192 19.614 75.2138 19.614C76.2552 19.614 77.1938 19.8707 78.0298 20.384C78.8805 20.8973 79.5478 21.6307 80.0318 22.584C80.5305 23.5227 80.7798 24.6153 80.7798 25.862C80.7798 27.1087 80.5305 28.216 80.0318 29.184C79.5478 30.1373 78.8805 30.878 78.0298 31.406C77.1938 31.934 76.2552 32.198 75.2138 32.198C74.3192 32.198 73.5272 32.0147 72.8378 31.648C72.1632 31.2813 71.6132 30.8193 71.1878 30.262V37.808H68.1078V19.812H71.1878V21.572ZM77.6338 25.862C77.6338 25.1287 77.4798 24.498 77.1718 23.97C76.8785 23.4273 76.4825 23.0167 75.9838 22.738C75.4998 22.4593 74.9718 22.32 74.3998 22.32C73.8425 22.32 73.3145 22.4667 72.8158 22.76C72.3318 23.0387 71.9358 23.4493 71.6278 23.992C71.3345 24.5347 71.1878 25.1727 71.1878 25.906C71.1878 26.6393 71.3345 27.2773 71.6278 27.82C71.9358 28.3627 72.3318 28.7807 72.8158 29.074C73.3145 29.3527 73.8425 29.492 74.3998 29.492C74.9718 29.492 75.4998 29.3453 75.9838 29.052C76.4825 28.7587 76.8785 28.3407 77.1718 27.798C77.4798 27.2553 77.6338 26.61 77.6338 25.862ZM86.098 15.72V32H83.018V15.72H86.098ZM94.553 32.198C93.3797 32.198 92.3237 31.9413 91.385 31.428C90.4464 30.9 89.7057 30.1593 89.163 29.206C88.635 28.2527 88.371 27.1527 88.371 25.906C88.371 24.6593 88.6424 23.5593 89.185 22.606C89.7424 21.6527 90.4977 20.9193 91.451 20.406C92.4044 19.878 93.4677 19.614 94.641 19.614C95.8144 19.614 96.8777 19.878 97.831 20.406C98.7844 20.9193 99.5324 21.6527 100.075 22.606C100.632 23.5593 100.911 24.6593 100.911 25.906C100.911 27.1527 100.625 28.2527 100.053 29.206C99.4957 30.1593 98.733 30.9 97.765 31.428C96.8117 31.9413 95.741 32.198 94.553 32.198ZM94.553 29.514C95.1104 29.514 95.631 29.382 96.115 29.118C96.6137 28.8393 97.0097 28.4287 97.303 27.886C97.5964 27.3433 97.743 26.6833 97.743 25.906C97.743 24.7473 97.435 23.86 96.819 23.244C96.2177 22.6133 95.477 22.298 94.597 22.298C93.717 22.298 92.9764 22.6133 92.375 23.244C91.7884 23.86 91.495 24.7473 91.495 25.906C91.495 27.0647 91.781 27.9593 92.353 28.59C92.9397 29.206 93.673 29.514 94.553 29.514ZM106.25 21.704C106.646 21.0587 107.16 20.5527 107.79 20.186C108.436 19.8193 109.169 19.636 109.99 19.636V22.87H109.176C108.208 22.87 107.475 23.0973 106.976 23.552C106.492 24.0067 106.25 24.7987 106.25 25.928V32H103.17V19.812H106.25V21.704ZM123.395 25.642C123.395 26.082 123.366 26.478 123.307 26.83H114.397C114.47 27.71 114.778 28.3993 115.321 28.898C115.864 29.3967 116.531 29.646 117.323 29.646C118.467 29.646 119.281 29.1547 119.765 28.172H123.087C122.735 29.3453 122.06 30.3133 121.063 31.076C120.066 31.824 118.841 32.198 117.389 32.198C116.216 32.198 115.16 31.9413 114.221 31.428C113.297 30.9 112.571 30.1593 112.043 29.206C111.53 28.2527 111.273 27.1527 111.273 25.906C111.273 24.6447 111.53 23.5373 112.043 22.584C112.556 21.6307 113.275 20.8973 114.199 20.384C115.123 19.8707 116.186 19.614 117.389 19.614C118.548 19.614 119.582 19.8633 120.491 20.362C121.415 20.8607 122.126 21.572 122.625 22.496C123.138 23.4053 123.395 24.454 123.395 25.642ZM120.205 24.762C120.19 23.97 119.904 23.3393 119.347 22.87C118.79 22.386 118.108 22.144 117.301 22.144C116.538 22.144 115.893 22.3787 115.365 22.848C114.852 23.3027 114.536 23.9407 114.419 24.762H120.205ZM133.965 16.644V32H130.885V16.644H133.965ZM136.524 28.876V26.456L143.718 16.16H147.304V26.192H149.24V28.876H147.304V32H144.224V28.876H136.524ZM144.422 19.46L139.912 26.192H144.422V19.46ZM172.079 16.644L167.789 32H164.159L161.277 21.066L158.263 32L154.655 32.022L150.519 16.644H153.819L156.525 28.568L159.649 16.644H163.081L166.029 28.502L168.757 16.644H172.079ZM173.298 25.862C173.298 24.63 173.54 23.5373 174.024 22.584C174.523 21.6307 175.19 20.8973 176.026 20.384C176.877 19.8707 177.823 19.614 178.864 19.614C179.774 19.614 180.566 19.7973 181.24 20.164C181.93 20.5307 182.48 20.9927 182.89 21.55V19.812H185.992V32H182.89V30.218C182.494 30.79 181.944 31.2667 181.24 31.648C180.551 32.0147 179.752 32.198 178.842 32.198C177.816 32.198 176.877 31.934 176.026 31.406C175.19 30.878 174.523 30.1373 174.024 29.184C173.54 28.216 173.298 27.1087 173.298 25.862ZM182.89 25.906C182.89 25.158 182.744 24.52 182.45 23.992C182.157 23.4493 181.761 23.0387 181.262 22.76C180.764 22.4667 180.228 22.32 179.656 22.32C179.084 22.32 178.556 22.4593 178.072 22.738C177.588 23.0167 177.192 23.4273 176.884 23.97C176.591 24.498 176.444 25.1287 176.444 25.862C176.444 26.5953 176.591 27.2407 176.884 27.798C177.192 28.3407 177.588 28.7587 178.072 29.052C178.571 29.3453 179.099 29.492 179.656 29.492C180.228 29.492 180.764 29.3527 181.262 29.074C181.761 28.7807 182.157 28.37 182.45 27.842C182.744 27.2993 182.89 26.654 182.89 25.906ZM193.664 32.198C192.667 32.198 191.772 32.022 190.98 31.67C190.188 31.3033 189.558 30.812 189.088 30.196C188.634 29.58 188.384 28.898 188.34 28.15H191.442C191.501 28.6193 191.728 29.008 192.124 29.316C192.535 29.624 193.041 29.778 193.642 29.778C194.229 29.778 194.684 29.6607 195.006 29.426C195.344 29.1913 195.512 28.8907 195.512 28.524C195.512 28.128 195.307 27.8347 194.896 27.644C194.5 27.4387 193.862 27.2187 192.982 26.984C192.073 26.764 191.325 26.5367 190.738 26.302C190.166 26.0673 189.668 25.708 189.242 25.224C188.832 24.74 188.626 24.0873 188.626 23.266C188.626 22.5913 188.817 21.9753 189.198 21.418C189.594 20.8607 190.152 20.4207 190.87 20.098C191.604 19.7753 192.462 19.614 193.444 19.614C194.896 19.614 196.055 19.9807 196.92 20.714C197.786 21.4327 198.262 22.408 198.35 23.64H195.402C195.358 23.156 195.153 22.7747 194.786 22.496C194.434 22.2027 193.958 22.056 193.356 22.056C192.799 22.056 192.366 22.1587 192.058 22.364C191.765 22.5693 191.618 22.8553 191.618 23.222C191.618 23.6327 191.824 23.948 192.234 24.168C192.645 24.3733 193.283 24.586 194.148 24.806C195.028 25.026 195.754 25.2533 196.326 25.488C196.898 25.7227 197.39 26.0893 197.8 26.588C198.226 27.072 198.446 27.7173 198.46 28.524C198.46 29.228 198.262 29.8587 197.866 30.416C197.485 30.9733 196.928 31.4133 196.194 31.736C195.476 32.044 194.632 32.198 193.664 32.198ZM207.853 19.636C208.777 19.636 209.598 19.8413 210.317 20.252C211.035 20.648 211.593 21.242 211.989 22.034C212.399 22.8113 212.605 23.75 212.605 24.85V32H209.525V25.268C209.525 24.3 209.283 23.5593 208.799 23.046C208.315 22.518 207.655 22.254 206.819 22.254C205.968 22.254 205.293 22.518 204.795 23.046C204.311 23.5593 204.069 24.3 204.069 25.268V32H200.989V15.72H204.069V21.33C204.465 20.802 204.993 20.3913 205.653 20.098C206.313 19.79 207.046 19.636 207.853 19.636ZM237.518 16.644V32H234.438V22.012L230.324 32H227.992L223.856 22.012V32H220.776V16.644H224.274L229.158 28.062L234.042 16.644H237.518ZM239.771 25.862C239.771 24.63 240.013 23.5373 240.497 22.584C240.996 21.6307 241.663 20.8973 242.499 20.384C243.35 19.8707 244.296 19.614 245.337 19.614C246.246 19.614 247.038 19.7973 247.713 20.164C248.402 20.5307 248.952 20.9927 249.363 21.55V19.812H252.465V32H249.363V30.218C248.967 30.79 248.417 31.2667 247.713 31.648C247.024 32.0147 246.224 32.198 245.315 32.198C244.288 32.198 243.35 31.934 242.499 31.406C241.663 30.878 240.996 30.1373 240.497 29.184C240.013 28.216 239.771 27.1087 239.771 25.862ZM249.363 25.906C249.363 25.158 249.216 24.52 248.923 23.992C248.63 23.4493 248.234 23.0387 247.735 22.76C247.236 22.4667 246.701 22.32 246.129 22.32C245.557 22.32 245.029 22.4593 244.545 22.738C244.061 23.0167 243.665 23.4273 243.357 23.97C243.064 24.498 242.917 25.1287 242.917 25.862C242.917 26.5953 243.064 27.2407 243.357 27.798C243.665 28.3407 244.061 28.7587 244.545 29.052C245.044 29.3453 245.572 29.492 246.129 29.492C246.701 29.492 247.236 29.3527 247.735 29.074C248.234 28.7807 248.63 28.37 248.923 27.842C249.216 27.2993 249.363 26.654 249.363 25.906ZM258.553 15.72V32H255.473V15.72H258.553ZM263.158 18.36C262.615 18.36 262.161 18.1913 261.794 17.854C261.442 17.502 261.266 17.0693 261.266 16.556C261.266 16.0427 261.442 15.6173 261.794 15.28C262.161 14.928 262.615 14.752 263.158 14.752C263.701 14.752 264.148 14.928 264.5 15.28C264.867 15.6173 265.05 16.0427 265.05 16.556C265.05 17.0693 264.867 17.502 264.5 17.854C264.148 18.1913 263.701 18.36 263.158 18.36ZM264.676 19.812V32H261.596V19.812H264.676ZM274.473 19.636C275.925 19.636 277.099 20.098 277.993 21.022C278.888 21.9313 279.335 23.2073 279.335 24.85V32H276.255V25.268C276.255 24.3 276.013 23.5593 275.529 23.046C275.045 22.518 274.385 22.254 273.549 22.254C272.699 22.254 272.024 22.518 271.525 23.046C271.041 23.5593 270.799 24.3 270.799 25.268V32H267.719V19.812H270.799V21.33C271.21 20.802 271.731 20.3913 272.361 20.098C273.007 19.79 273.711 19.636 274.473 19.636ZM281.472 25.862C281.472 24.63 281.714 23.5373 282.198 22.584C282.697 21.6307 283.371 20.8973 284.222 20.384C285.073 19.8707 286.019 19.614 287.06 19.614C287.852 19.614 288.607 19.79 289.326 20.142C290.045 20.4793 290.617 20.934 291.042 21.506V15.72H294.166V32H291.042V30.196C290.661 30.7973 290.125 31.2813 289.436 31.648C288.747 32.0147 287.947 32.198 287.038 32.198C286.011 32.198 285.073 31.934 284.222 31.406C283.371 30.878 282.697 30.1373 282.198 29.184C281.714 28.216 281.472 27.1087 281.472 25.862ZM291.064 25.906C291.064 25.158 290.917 24.52 290.624 23.992C290.331 23.4493 289.935 23.0387 289.436 22.76C288.937 22.4667 288.402 22.32 287.83 22.32C287.258 22.32 286.73 22.4593 286.246 22.738C285.762 23.0167 285.366 23.4273 285.058 23.97C284.765 24.498 284.618 25.1287 284.618 25.862C284.618 26.5953 284.765 27.2407 285.058 27.798C285.366 28.3407 285.762 28.7587 286.246 29.052C286.745 29.3453 287.273 29.492 287.83 29.492C288.402 29.492 288.937 29.3527 289.436 29.074C289.935 28.7807 290.331 28.37 290.624 27.842C290.917 27.2993 291.064 26.654 291.064 25.906ZM298.736 18.36C298.194 18.36 297.739 18.1913 297.372 17.854C297.02 17.502 296.844 17.0693 296.844 16.556C296.844 16.0427 297.02 15.6173 297.372 15.28C297.739 14.928 298.194 14.752 298.736 14.752C299.279 14.752 299.726 14.928 300.078 15.28C300.445 15.6173 300.628 16.0427 300.628 16.556C300.628 17.0693 300.445 17.502 300.078 17.854C299.726 18.1913 299.279 18.36 298.736 18.36ZM300.254 19.812V32H297.174V19.812H300.254Z" fill="white"/>
</svg>
