<svg width="346" height="50" viewBox="0 0 346 50" fill="none" xmlns="http://www.w3.org/2000/svg">
    <rect width="346" height="50" rx="10" fill="#76EADA" fill-opacity="0.6"/>
    <path d="M17.598 19.13V22.98H22.768V25.422H17.598V29.492H23.428V32H14.518V16.622H23.428V19.13H17.598ZM32.959 32L30.451 28.216L28.229 32H24.929L28.911 25.884L24.885 19.812H28.361L30.847 23.574L33.091 19.812H36.391L32.387 25.884L36.435 32H32.959ZM41.1878 21.572C41.5838 21.0147 42.1265 20.5527 42.8158 20.186C43.5198 19.8047 44.3192 19.614 45.2138 19.614C46.2552 19.614 47.1938 19.8707 48.0298 20.384C48.8805 20.8973 49.5478 21.6307 50.0318 22.584C50.5305 23.5227 50.7798 24.6153 50.7798 25.862C50.7798 27.1087 50.5305 28.216 50.0318 29.184C49.5478 30.1373 48.8805 30.878 48.0298 31.406C47.1938 31.934 46.2552 32.198 45.2138 32.198C44.3192 32.198 43.5272 32.0147 42.8378 31.648C42.1632 31.2813 41.6132 30.8193 41.1878 30.262V37.808H38.1078V19.812H41.1878V21.572ZM47.6338 25.862C47.6338 25.1287 47.4798 24.498 47.1718 23.97C46.8785 23.4273 46.4825 23.0167 45.9838 22.738C45.4998 22.4593 44.9718 22.32 44.3998 22.32C43.8425 22.32 43.3145 22.4667 42.8158 22.76C42.3318 23.0387 41.9358 23.4493 41.6278 23.992C41.3345 24.5347 41.1878 25.1727 41.1878 25.906C41.1878 26.6393 41.3345 27.2773 41.6278 27.82C41.9358 28.3627 42.3318 28.7807 42.8158 29.074C43.3145 29.3527 43.8425 29.492 44.3998 29.492C44.9718 29.492 45.4998 29.3453 45.9838 29.052C46.4825 28.7587 46.8785 28.3407 47.1718 27.798C47.4798 27.2553 47.6338 26.61 47.6338 25.862ZM56.098 15.72V32H53.018V15.72H56.098ZM64.553 32.198C63.3797 32.198 62.3237 31.9413 61.385 31.428C60.4464 30.9 59.7057 30.1593 59.163 29.206C58.635 28.2527 58.371 27.1527 58.371 25.906C58.371 24.6593 58.6424 23.5593 59.185 22.606C59.7424 21.6527 60.4977 20.9193 61.451 20.406C62.4044 19.878 63.4677 19.614 64.641 19.614C65.8144 19.614 66.8777 19.878 67.831 20.406C68.7844 20.9193 69.5324 21.6527 70.075 22.606C70.6324 23.5593 70.911 24.6593 70.911 25.906C70.911 27.1527 70.625 28.2527 70.053 29.206C69.4957 30.1593 68.733 30.9 67.765 31.428C66.8117 31.9413 65.741 32.198 64.553 32.198ZM64.553 29.514C65.1104 29.514 65.631 29.382 66.115 29.118C66.6137 28.8393 67.0097 28.4287 67.303 27.886C67.5964 27.3433 67.743 26.6833 67.743 25.906C67.743 24.7473 67.435 23.86 66.819 23.244C66.2177 22.6133 65.477 22.298 64.597 22.298C63.717 22.298 62.9764 22.6133 62.375 23.244C61.7884 23.86 61.495 24.7473 61.495 25.906C61.495 27.0647 61.781 27.9593 62.353 28.59C62.9397 29.206 63.673 29.514 64.553 29.514ZM76.2503 21.704C76.6463 21.0587 77.1597 20.5527 77.7903 20.186C78.4357 19.8193 79.169 19.636 79.9903 19.636V22.87H79.1763C78.2083 22.87 77.475 23.0973 76.9763 23.552C76.4923 24.0067 76.2503 24.7987 76.2503 25.928V32H73.1703V19.812H76.2503V21.704ZM93.3949 25.642C93.3949 26.082 93.3655 26.478 93.3069 26.83H84.3969C84.4702 27.71 84.7782 28.3993 85.3209 28.898C85.8635 29.3967 86.5309 29.646 87.3229 29.646C88.4669 29.646 89.2809 29.1547 89.7649 28.172H93.0869C92.7349 29.3453 92.0602 30.3133 91.0629 31.076C90.0655 31.824 88.8409 32.198 87.3889 32.198C86.2155 32.198 85.1595 31.9413 84.2209 31.428C83.2969 30.9 82.5709 30.1593 82.0429 29.206C81.5295 28.2527 81.2729 27.1527 81.2729 25.906C81.2729 24.6447 81.5295 23.5373 82.0429 22.584C82.5562 21.6307 83.2749 20.8973 84.1989 20.384C85.1229 19.8707 86.1862 19.614 87.3889 19.614C88.5475 19.614 89.5815 19.8633 90.4909 20.362C91.4149 20.8607 92.1262 21.572 92.6249 22.496C93.1382 23.4053 93.3949 24.454 93.3949 25.642ZM90.2049 24.762C90.1902 23.97 89.9042 23.3393 89.3469 22.87C88.7895 22.386 88.1075 22.144 87.3009 22.144C86.5382 22.144 85.8929 22.3787 85.3649 22.848C84.8515 23.3027 84.5362 23.9407 84.4189 24.762H90.2049ZM103.965 16.644V32H100.885V16.644H103.965ZM106.524 28.876V26.456L113.718 16.16H117.304V26.192H119.24V28.876H117.304V32H114.224V28.876H106.524ZM114.422 19.46L109.912 26.192H114.422V19.46ZM142.079 16.644L137.789 32H134.159L131.277 21.066L128.263 32L124.655 32.022L120.519 16.644H123.819L126.525 28.568L129.649 16.644H133.081L136.029 28.502L138.757 16.644H142.079ZM143.298 25.862C143.298 24.63 143.54 23.5373 144.024 22.584C144.523 21.6307 145.19 20.8973 146.026 20.384C146.877 19.8707 147.823 19.614 148.864 19.614C149.774 19.614 150.566 19.7973 151.24 20.164C151.93 20.5307 152.48 20.9927 152.89 21.55V19.812H155.992V32H152.89V30.218C152.494 30.79 151.944 31.2667 151.24 31.648C150.551 32.0147 149.752 32.198 148.842 32.198C147.816 32.198 146.877 31.934 146.026 31.406C145.19 30.878 144.523 30.1373 144.024 29.184C143.54 28.216 143.298 27.1087 143.298 25.862ZM152.89 25.906C152.89 25.158 152.744 24.52 152.45 23.992C152.157 23.4493 151.761 23.0387 151.262 22.76C150.764 22.4667 150.228 22.32 149.656 22.32C149.084 22.32 148.556 22.4593 148.072 22.738C147.588 23.0167 147.192 23.4273 146.884 23.97C146.591 24.498 146.444 25.1287 146.444 25.862C146.444 26.5953 146.591 27.2407 146.884 27.798C147.192 28.3407 147.588 28.7587 148.072 29.052C148.571 29.3453 149.099 29.492 149.656 29.492C150.228 29.492 150.764 29.3527 151.262 29.074C151.761 28.7807 152.157 28.37 152.45 27.842C152.744 27.2993 152.89 26.654 152.89 25.906ZM163.664 32.198C162.667 32.198 161.772 32.022 160.98 31.67C160.188 31.3033 159.558 30.812 159.088 30.196C158.634 29.58 158.384 28.898 158.34 28.15H161.442C161.501 28.6193 161.728 29.008 162.124 29.316C162.535 29.624 163.041 29.778 163.642 29.778C164.229 29.778 164.684 29.6607 165.006 29.426C165.344 29.1913 165.512 28.8907 165.512 28.524C165.512 28.128 165.307 27.8347 164.896 27.644C164.5 27.4387 163.862 27.2187 162.982 26.984C162.073 26.764 161.325 26.5367 160.738 26.302C160.166 26.0673 159.668 25.708 159.242 25.224C158.832 24.74 158.626 24.0873 158.626 23.266C158.626 22.5913 158.817 21.9753 159.198 21.418C159.594 20.8607 160.152 20.4207 160.87 20.098C161.604 19.7753 162.462 19.614 163.444 19.614C164.896 19.614 166.055 19.9807 166.92 20.714C167.786 21.4327 168.262 22.408 168.35 23.64H165.402C165.358 23.156 165.153 22.7747 164.786 22.496C164.434 22.2027 163.958 22.056 163.356 22.056C162.799 22.056 162.366 22.1587 162.058 22.364C161.765 22.5693 161.618 22.8553 161.618 23.222C161.618 23.6327 161.824 23.948 162.234 24.168C162.645 24.3733 163.283 24.586 164.148 24.806C165.028 25.026 165.754 25.2533 166.326 25.488C166.898 25.7227 167.39 26.0893 167.8 26.588C168.226 27.072 168.446 27.7173 168.46 28.524C168.46 29.228 168.262 29.8587 167.866 30.416C167.485 30.9733 166.928 31.4133 166.194 31.736C165.476 32.044 164.632 32.198 163.664 32.198ZM177.853 19.636C178.777 19.636 179.598 19.8413 180.317 20.252C181.035 20.648 181.593 21.242 181.989 22.034C182.399 22.8113 182.605 23.75 182.605 24.85V32H179.525V25.268C179.525 24.3 179.283 23.5593 178.799 23.046C178.315 22.518 177.655 22.254 176.819 22.254C175.968 22.254 175.293 22.518 174.795 23.046C174.311 23.5593 174.069 24.3 174.069 25.268V32H170.989V15.72H174.069V21.33C174.465 20.802 174.993 20.3913 175.653 20.098C176.313 19.79 177.046 19.636 177.853 19.636ZM207.518 16.644V32H204.438V22.012L200.324 32H197.992L193.856 22.012V32H190.776V16.644H194.274L199.158 28.062L204.042 16.644H207.518ZM209.771 25.862C209.771 24.63 210.013 23.5373 210.497 22.584C210.996 21.6307 211.663 20.8973 212.499 20.384C213.35 19.8707 214.296 19.614 215.337 19.614C216.246 19.614 217.038 19.7973 217.713 20.164C218.402 20.5307 218.952 20.9927 219.363 21.55V19.812H222.465V32H219.363V30.218C218.967 30.79 218.417 31.2667 217.713 31.648C217.024 32.0147 216.224 32.198 215.315 32.198C214.288 32.198 213.35 31.934 212.499 31.406C211.663 30.878 210.996 30.1373 210.497 29.184C210.013 28.216 209.771 27.1087 209.771 25.862ZM219.363 25.906C219.363 25.158 219.216 24.52 218.923 23.992C218.63 23.4493 218.234 23.0387 217.735 22.76C217.236 22.4667 216.701 22.32 216.129 22.32C215.557 22.32 215.029 22.4593 214.545 22.738C214.061 23.0167 213.665 23.4273 213.357 23.97C213.064 24.498 212.917 25.1287 212.917 25.862C212.917 26.5953 213.064 27.2407 213.357 27.798C213.665 28.3407 214.061 28.7587 214.545 29.052C215.044 29.3453 215.572 29.492 216.129 29.492C216.701 29.492 217.236 29.3527 217.735 29.074C218.234 28.7807 218.63 28.37 218.923 27.842C219.216 27.2993 219.363 26.654 219.363 25.906ZM228.553 15.72V32H225.473V15.72H228.553ZM233.158 18.36C232.615 18.36 232.161 18.1913 231.794 17.854C231.442 17.502 231.266 17.0693 231.266 16.556C231.266 16.0427 231.442 15.6173 231.794 15.28C232.161 14.928 232.615 14.752 233.158 14.752C233.701 14.752 234.148 14.928 234.5 15.28C234.867 15.6173 235.05 16.0427 235.05 16.556C235.05 17.0693 234.867 17.502 234.5 17.854C234.148 18.1913 233.701 18.36 233.158 18.36ZM234.676 19.812V32H231.596V19.812H234.676ZM244.473 19.636C245.925 19.636 247.099 20.098 247.993 21.022C248.888 21.9313 249.335 23.2073 249.335 24.85V32H246.255V25.268C246.255 24.3 246.013 23.5593 245.529 23.046C245.045 22.518 244.385 22.254 243.549 22.254C242.699 22.254 242.024 22.518 241.525 23.046C241.041 23.5593 240.799 24.3 240.799 25.268V32H237.719V19.812H240.799V21.33C241.21 20.802 241.731 20.3913 242.361 20.098C243.007 19.79 243.711 19.636 244.473 19.636ZM251.472 25.862C251.472 24.63 251.714 23.5373 252.198 22.584C252.697 21.6307 253.371 20.8973 254.222 20.384C255.073 19.8707 256.019 19.614 257.06 19.614C257.852 19.614 258.607 19.79 259.326 20.142C260.045 20.4793 260.617 20.934 261.042 21.506V15.72H264.166V32H261.042V30.196C260.661 30.7973 260.125 31.2813 259.436 31.648C258.747 32.0147 257.947 32.198 257.038 32.198C256.011 32.198 255.073 31.934 254.222 31.406C253.371 30.878 252.697 30.1373 252.198 29.184C251.714 28.216 251.472 27.1087 251.472 25.862ZM261.064 25.906C261.064 25.158 260.917 24.52 260.624 23.992C260.331 23.4493 259.935 23.0387 259.436 22.76C258.937 22.4667 258.402 22.32 257.83 22.32C257.258 22.32 256.73 22.4593 256.246 22.738C255.762 23.0167 255.366 23.4273 255.058 23.97C254.765 24.498 254.618 25.1287 254.618 25.862C254.618 26.5953 254.765 27.2407 255.058 27.798C255.366 28.3407 255.762 28.7587 256.246 29.052C256.745 29.3453 257.273 29.492 257.83 29.492C258.402 29.492 258.937 29.3527 259.436 29.074C259.935 28.7807 260.331 28.37 260.624 27.842C260.917 27.2993 261.064 26.654 261.064 25.906ZM268.736 18.36C268.194 18.36 267.739 18.1913 267.372 17.854C267.02 17.502 266.844 17.0693 266.844 16.556C266.844 16.0427 267.02 15.6173 267.372 15.28C267.739 14.928 268.194 14.752 268.736 14.752C269.279 14.752 269.726 14.928 270.078 15.28C270.445 15.6173 270.628 16.0427 270.628 16.556C270.628 17.0693 270.445 17.502 270.078 17.854C269.726 18.1913 269.279 18.36 268.736 18.36ZM270.254 19.812V32H267.174V19.812H270.254ZM279.155 28.524C280.563 27.3507 281.685 26.3753 282.521 25.598C283.357 24.806 284.054 23.9847 284.611 23.134C285.169 22.2833 285.447 21.4473 285.447 20.626C285.447 19.878 285.271 19.2913 284.919 18.866C284.567 18.4407 284.025 18.228 283.291 18.228C282.558 18.228 281.993 18.4773 281.597 18.976C281.201 19.46 280.996 20.1273 280.981 20.978H277.989C278.048 19.218 278.569 17.8833 279.551 16.974C280.549 16.0647 281.81 15.61 283.335 15.61C285.007 15.61 286.291 16.0573 287.185 16.952C288.08 17.832 288.527 18.998 288.527 20.45C288.527 21.594 288.219 22.6867 287.603 23.728C286.987 24.7693 286.283 25.6787 285.491 26.456C284.699 27.2187 283.665 28.1427 282.389 29.228H288.879V31.78H278.011V29.492L279.155 28.524ZM290.82 23.772C290.82 21.2347 291.275 19.2473 292.184 17.81C293.108 16.3727 294.634 15.654 296.76 15.654C298.887 15.654 300.405 16.3727 301.314 17.81C302.238 19.2473 302.7 21.2347 302.7 23.772C302.7 26.324 302.238 28.326 301.314 29.778C300.405 31.23 298.887 31.956 296.76 31.956C294.634 31.956 293.108 31.23 292.184 29.778C291.275 28.326 290.82 26.324 290.82 23.772ZM299.664 23.772C299.664 22.6867 299.591 21.7773 299.444 21.044C299.312 20.296 299.034 19.6873 298.608 19.218C298.198 18.7487 297.582 18.514 296.76 18.514C295.939 18.514 295.316 18.7487 294.89 19.218C294.48 19.6873 294.201 20.296 294.054 21.044C293.922 21.7773 293.856 22.6867 293.856 23.772C293.856 24.8867 293.922 25.8253 294.054 26.588C294.186 27.336 294.465 27.9447 294.89 28.414C295.316 28.8687 295.939 29.096 296.76 29.096C297.582 29.096 298.205 28.8687 298.63 28.414C299.056 27.9447 299.334 27.336 299.466 26.588C299.598 25.8253 299.664 24.8867 299.664 23.772ZM306.011 28.524C307.419 27.3507 308.541 26.3753 309.377 25.598C310.213 24.806 310.91 23.9847 311.467 23.134C312.024 22.2833 312.303 21.4473 312.303 20.626C312.303 19.878 312.127 19.2913 311.775 18.866C311.423 18.4407 310.88 18.228 310.147 18.228C309.414 18.228 308.849 18.4773 308.453 18.976C308.057 19.46 307.852 20.1273 307.837 20.978H304.845C304.904 19.218 305.424 17.8833 306.407 16.974C307.404 16.0647 308.666 15.61 310.191 15.61C311.863 15.61 313.146 16.0573 314.041 16.952C314.936 17.832 315.383 18.998 315.383 20.45C315.383 21.594 315.075 22.6867 314.459 23.728C313.843 24.7693 313.139 25.6787 312.347 26.456C311.555 27.2187 310.521 28.1427 309.245 29.228H315.735V31.78H304.867V29.492L306.011 28.524ZM328.456 18.624H321.328V22.386C321.636 22.0047 322.076 21.6967 322.648 21.462C323.22 21.2127 323.828 21.088 324.474 21.088C325.647 21.088 326.608 21.3447 327.356 21.858C328.104 22.3713 328.646 23.0313 328.984 23.838C329.321 24.63 329.49 25.4807 329.49 26.39C329.49 28.0767 329.006 29.4333 328.038 30.46C327.084 31.4867 325.72 32 323.946 32C322.274 32 320.939 31.582 319.942 30.746C318.944 29.91 318.38 28.8173 318.248 27.468H321.24C321.372 28.0547 321.665 28.524 322.12 28.876C322.589 29.228 323.183 29.404 323.902 29.404C324.767 29.404 325.42 29.1327 325.86 28.59C326.3 28.0473 326.52 27.3287 326.52 26.434C326.52 25.5247 326.292 24.8353 325.838 24.366C325.398 23.882 324.745 23.64 323.88 23.64C323.264 23.64 322.75 23.794 322.34 24.102C321.929 24.41 321.636 24.8207 321.46 25.334H318.512V15.918H328.456V18.624Z" fill="white"/>
</svg>
