<svg width="407" height="50" viewBox="0 0 407 50" fill="none" xmlns="http://www.w3.org/2000/svg">
    <rect width="407" height="50" rx="10" fill="#76EADA" fill-opacity="0.6"/>
    <path d="M19.598 16.644V32H16.518V16.644H19.598ZM22.157 28.876V26.456L29.351 16.16H32.937V26.192H34.873V28.876H32.937V32H29.857V28.876H22.157ZM30.055 19.46L25.545 26.192H30.055V19.46ZM57.712 16.644L53.422 32H49.792L46.91 21.066L43.896 32L40.288 32.022L36.152 16.644H39.452L42.158 28.568L45.282 16.644H48.714L51.662 28.502L54.39 16.644H57.712ZM69.1391 29.074H63.0231L62.0111 32H58.7771L64.2991 16.622H67.8851L73.4071 32H70.1511L69.1391 29.074ZM68.3031 26.61L66.0811 20.186L63.8591 26.61H68.3031ZM80.7731 32.154C79.7025 32.154 78.7345 31.9707 77.8691 31.604C77.0185 31.2373 76.3438 30.7093 75.8451 30.02C75.3465 29.3307 75.0898 28.5167 75.0751 27.578H78.3751C78.4191 28.2087 78.6391 28.7073 79.0351 29.074C79.4458 29.4407 80.0031 29.624 80.7071 29.624C81.4258 29.624 81.9905 29.4553 82.4011 29.118C82.8118 28.766 83.0171 28.3113 83.0171 27.754C83.0171 27.2993 82.8778 26.9253 82.5991 26.632C82.3205 26.3387 81.9685 26.1113 81.5431 25.95C81.1325 25.774 80.5605 25.5833 79.8271 25.378C78.8298 25.0847 78.0158 24.7987 77.3851 24.52C76.7691 24.2267 76.2338 23.794 75.7791 23.222C75.3391 22.6353 75.1191 21.858 75.1191 20.89C75.1191 19.9807 75.3465 19.1887 75.8011 18.514C76.2558 17.8393 76.8938 17.326 77.7151 16.974C78.5365 16.6073 79.4751 16.424 80.5311 16.424C82.1151 16.424 83.3985 16.8127 84.3811 17.59C85.3785 18.3527 85.9285 19.4233 86.0311 20.802H82.6431C82.6138 20.274 82.3865 19.8413 81.9611 19.504C81.5505 19.152 81.0005 18.976 80.3111 18.976C79.7098 18.976 79.2258 19.13 78.8591 19.438C78.5071 19.746 78.3311 20.1933 78.3311 20.78C78.3311 21.1907 78.4631 21.5353 78.7271 21.814C79.0058 22.078 79.3431 22.298 79.7391 22.474C80.1498 22.6353 80.7218 22.826 81.4551 23.046C82.4525 23.3393 83.2665 23.6327 83.8971 23.926C84.5278 24.2193 85.0705 24.6593 85.5251 25.246C85.9798 25.8327 86.2071 26.6027 86.2071 27.556C86.2071 28.3773 85.9945 29.14 85.5691 29.844C85.1438 30.548 84.5205 31.1127 83.6991 31.538C82.8778 31.9487 81.9025 32.154 80.7731 32.154ZM101.615 16.644V32H98.5354V25.466H91.9574V32H88.8774V16.644H91.9574V22.958H98.5354V16.644H101.615ZM126.631 16.644V32H123.551V22.012L119.437 32H117.105L112.969 22.012V32H109.889V16.644H113.387L118.271 28.062L123.155 16.644H126.631ZM128.884 25.862C128.884 24.63 129.126 23.5373 129.61 22.584C130.109 21.6307 130.776 20.8973 131.612 20.384C132.463 19.8707 133.409 19.614 134.45 19.614C135.36 19.614 136.152 19.7973 136.826 20.164C137.516 20.5307 138.066 20.9927 138.476 21.55V19.812H141.578V32H138.476V30.218C138.08 30.79 137.53 31.2667 136.826 31.648C136.137 32.0147 135.338 32.198 134.428 32.198C133.402 32.198 132.463 31.934 131.612 31.406C130.776 30.878 130.109 30.1373 129.61 29.184C129.126 28.216 128.884 27.1087 128.884 25.862ZM138.476 25.906C138.476 25.158 138.33 24.52 138.036 23.992C137.743 23.4493 137.347 23.0387 136.848 22.76C136.35 22.4667 135.814 22.32 135.242 22.32C134.67 22.32 134.142 22.4593 133.658 22.738C133.174 23.0167 132.778 23.4273 132.47 23.97C132.177 24.498 132.03 25.1287 132.03 25.862C132.03 26.5953 132.177 27.2407 132.47 27.798C132.778 28.3407 133.174 28.7587 133.658 29.052C134.157 29.3453 134.685 29.492 135.242 29.492C135.814 29.492 136.35 29.3527 136.848 29.074C137.347 28.7807 137.743 28.37 138.036 27.842C138.33 27.2993 138.476 26.654 138.476 25.906ZM147.666 15.72V32H144.586V15.72H147.666ZM152.271 18.36C151.729 18.36 151.274 18.1913 150.907 17.854C150.555 17.502 150.379 17.0693 150.379 16.556C150.379 16.0427 150.555 15.6173 150.907 15.28C151.274 14.928 151.729 14.752 152.271 14.752C152.814 14.752 153.261 14.928 153.613 15.28C153.98 15.6173 154.163 16.0427 154.163 16.556C154.163 17.0693 153.98 17.502 153.613 17.854C153.261 18.1913 152.814 18.36 152.271 18.36ZM153.789 19.812V32H150.709V19.812H153.789ZM163.586 19.636C165.038 19.636 166.212 20.098 167.106 21.022C168.001 21.9313 168.448 23.2073 168.448 24.85V32H165.368V25.268C165.368 24.3 165.126 23.5593 164.642 23.046C164.158 22.518 163.498 22.254 162.662 22.254C161.812 22.254 161.137 22.518 160.638 23.046C160.154 23.5593 159.912 24.3 159.912 25.268V32H156.832V19.812H159.912V21.33C160.323 20.802 160.844 20.3913 161.474 20.098C162.12 19.79 162.824 19.636 163.586 19.636ZM170.585 25.862C170.585 24.63 170.827 23.5373 171.311 22.584C171.81 21.6307 172.485 20.8973 173.335 20.384C174.186 19.8707 175.132 19.614 176.173 19.614C176.965 19.614 177.721 19.79 178.439 20.142C179.158 20.4793 179.73 20.934 180.155 21.506V15.72H183.279V32H180.155V30.196C179.774 30.7973 179.239 31.2813 178.549 31.648C177.86 32.0147 177.061 32.198 176.151 32.198C175.125 32.198 174.186 31.934 173.335 31.406C172.485 30.878 171.81 30.1373 171.311 29.184C170.827 28.216 170.585 27.1087 170.585 25.862ZM180.177 25.906C180.177 25.158 180.031 24.52 179.737 23.992C179.444 23.4493 179.048 23.0387 178.549 22.76C178.051 22.4667 177.515 22.32 176.943 22.32C176.371 22.32 175.843 22.4593 175.359 22.738C174.875 23.0167 174.479 23.4273 174.171 23.97C173.878 24.498 173.731 25.1287 173.731 25.862C173.731 26.5953 173.878 27.2407 174.171 27.798C174.479 28.3407 174.875 28.7587 175.359 29.052C175.858 29.3453 176.386 29.492 176.943 29.492C177.515 29.492 178.051 29.3527 178.549 29.074C179.048 28.7807 179.444 28.37 179.737 27.842C180.031 27.2993 180.177 26.654 180.177 25.906ZM187.85 18.36C187.307 18.36 186.852 18.1913 186.486 17.854C186.134 17.502 185.958 17.0693 185.958 16.556C185.958 16.0427 186.134 15.6173 186.486 15.28C186.852 14.928 187.307 14.752 187.85 14.752C188.392 14.752 188.84 14.928 189.192 15.28C189.558 15.6173 189.742 16.0427 189.742 16.556C189.742 17.0693 189.558 17.502 189.192 17.854C188.84 18.1913 188.392 18.36 187.85 18.36ZM189.368 19.812V32H186.288V19.812H189.368ZM198.269 28.524C199.677 27.3507 200.799 26.3753 201.635 25.598C202.471 24.806 203.167 23.9847 203.725 23.134C204.282 22.2833 204.561 21.4473 204.561 20.626C204.561 19.878 204.385 19.2913 204.033 18.866C203.681 18.4407 203.138 18.228 202.405 18.228C201.671 18.228 201.107 18.4773 200.711 18.976C200.315 19.46 200.109 20.1273 200.095 20.978H197.103C197.161 19.218 197.682 17.8833 198.665 16.974C199.662 16.0647 200.923 15.61 202.449 15.61C204.121 15.61 205.404 16.0573 206.299 16.952C207.193 17.832 207.641 18.998 207.641 20.45C207.641 21.594 207.333 22.6867 206.717 23.728C206.101 24.7693 205.397 25.6787 204.605 26.456C203.813 27.2187 202.779 28.1427 201.503 29.228H207.993V31.78H197.125V29.492L198.269 28.524ZM209.934 23.772C209.934 21.2347 210.388 19.2473 211.298 17.81C212.222 16.3727 213.747 15.654 215.874 15.654C218 15.654 219.518 16.3727 220.428 17.81C221.352 19.2473 221.814 21.2347 221.814 23.772C221.814 26.324 221.352 28.326 220.428 29.778C219.518 31.23 218 31.956 215.874 31.956C213.747 31.956 212.222 31.23 211.298 29.778C210.388 28.326 209.934 26.324 209.934 23.772ZM218.778 23.772C218.778 22.6867 218.704 21.7773 218.558 21.044C218.426 20.296 218.147 19.6873 217.722 19.218C217.311 18.7487 216.695 18.514 215.874 18.514C215.052 18.514 214.429 18.7487 214.004 19.218C213.593 19.6873 213.314 20.296 213.168 21.044C213.036 21.7773 212.97 22.6867 212.97 23.772C212.97 24.8867 213.036 25.8253 213.168 26.588C213.3 27.336 213.578 27.9447 214.004 28.414C214.429 28.8687 215.052 29.096 215.874 29.096C216.695 29.096 217.318 28.8687 217.744 28.414C218.169 27.9447 218.448 27.336 218.58 26.588C218.712 25.8253 218.778 24.8867 218.778 23.772ZM225.124 28.524C226.532 27.3507 227.654 26.3753 228.49 25.598C229.326 24.806 230.023 23.9847 230.58 23.134C231.138 22.2833 231.416 21.4473 231.416 20.626C231.416 19.878 231.24 19.2913 230.888 18.866C230.536 18.4407 229.994 18.228 229.26 18.228C228.527 18.228 227.962 18.4773 227.566 18.976C227.17 19.46 226.965 20.1273 226.95 20.978H223.958C224.017 19.218 224.538 17.8833 225.52 16.974C226.518 16.0647 227.779 15.61 229.304 15.61C230.976 15.61 232.26 16.0573 233.154 16.952C234.049 17.832 234.496 18.998 234.496 20.45C234.496 21.594 234.188 22.6867 233.572 23.728C232.956 24.7693 232.252 25.6787 231.46 26.456C230.668 27.2187 229.634 28.1427 228.358 29.228H234.848V31.78H223.98V29.492L225.124 28.524ZM247.569 18.624H240.441V22.386C240.749 22.0047 241.189 21.6967 241.761 21.462C242.333 21.2127 242.942 21.088 243.587 21.088C244.76 21.088 245.721 21.3447 246.469 21.858C247.217 22.3713 247.76 23.0313 248.097 23.838C248.434 24.63 248.603 25.4807 248.603 26.39C248.603 28.0767 248.119 29.4333 247.151 30.46C246.198 31.4867 244.834 32 243.059 32C241.387 32 240.052 31.582 239.055 30.746C238.058 29.91 237.493 28.8173 237.361 27.468H240.353C240.485 28.0547 240.778 28.524 241.233 28.876C241.702 29.228 242.296 29.404 243.015 29.404C243.88 29.404 244.533 29.1327 244.973 28.59C245.413 28.0473 245.633 27.3287 245.633 26.434C245.633 25.5247 245.406 24.8353 244.951 24.366C244.511 23.882 243.858 23.64 242.993 23.64C242.377 23.64 241.864 23.794 241.453 24.102C241.042 24.41 240.749 24.8207 240.573 25.334H237.625V15.918H247.569V18.624ZM264.461 32L261.073 26.016H259.621V32H256.541V16.644H262.305C263.493 16.644 264.505 16.8567 265.341 17.282C266.177 17.6927 266.801 18.2573 267.211 18.976C267.637 19.68 267.849 20.472 267.849 21.352C267.849 22.364 267.556 23.2807 266.969 24.102C266.383 24.9087 265.51 25.466 264.351 25.774L268.025 32H264.461ZM259.621 23.706H262.195C263.031 23.706 263.655 23.508 264.065 23.112C264.476 22.7013 264.681 22.1367 264.681 21.418C264.681 20.714 264.476 20.1713 264.065 19.79C263.655 19.394 263.031 19.196 262.195 19.196H259.621V23.706ZM281.965 25.642C281.965 26.082 281.936 26.478 281.877 26.83H272.967C273.041 27.71 273.349 28.3993 273.891 28.898C274.434 29.3967 275.101 29.646 275.893 29.646C277.037 29.646 277.851 29.1547 278.335 28.172H281.657C281.305 29.3453 280.631 30.3133 279.633 31.076C278.636 31.824 277.411 32.198 275.959 32.198C274.786 32.198 273.73 31.9413 272.791 31.428C271.867 30.9 271.141 30.1593 270.613 29.206C270.1 28.2527 269.843 27.1527 269.843 25.906C269.843 24.6447 270.1 23.5373 270.613 22.584C271.127 21.6307 271.845 20.8973 272.769 20.384C273.693 19.8707 274.757 19.614 275.959 19.614C277.118 19.614 278.152 19.8633 279.061 20.362C279.985 20.8607 280.697 21.572 281.195 22.496C281.709 23.4053 281.965 24.454 281.965 25.642ZM278.775 24.762C278.761 23.97 278.475 23.3393 277.917 22.87C277.36 22.386 276.678 22.144 275.871 22.144C275.109 22.144 274.463 22.3787 273.935 22.848C273.422 23.3027 273.107 23.9407 272.989 24.762H278.775ZM288.987 19.614C289.897 19.614 290.696 19.7973 291.385 20.164C292.075 20.516 292.617 20.978 293.013 21.55V19.812H296.115V32.088C296.115 33.2173 295.888 34.222 295.433 35.102C294.979 35.9967 294.297 36.7007 293.387 37.214C292.478 37.742 291.378 38.006 290.087 38.006C288.357 38.006 286.934 37.6027 285.819 36.796C284.719 35.9893 284.096 34.8893 283.949 33.496H287.007C287.169 34.0533 287.513 34.4933 288.041 34.816C288.584 35.1533 289.237 35.322 289.999 35.322C290.894 35.322 291.62 35.0507 292.177 34.508C292.735 33.98 293.013 33.1733 293.013 32.088V30.196C292.617 30.768 292.067 31.2447 291.363 31.626C290.674 32.0073 289.882 32.198 288.987 32.198C287.961 32.198 287.022 31.934 286.171 31.406C285.321 30.878 284.646 30.1373 284.147 29.184C283.663 28.216 283.421 27.1087 283.421 25.862C283.421 24.63 283.663 23.5373 284.147 22.584C284.646 21.6307 285.313 20.8973 286.149 20.384C287 19.8707 287.946 19.614 288.987 19.614ZM293.013 25.906C293.013 25.158 292.867 24.52 292.573 23.992C292.28 23.4493 291.884 23.0387 291.385 22.76C290.887 22.4667 290.351 22.32 289.779 22.32C289.207 22.32 288.679 22.4593 288.195 22.738C287.711 23.0167 287.315 23.4273 287.007 23.97C286.714 24.498 286.567 25.1287 286.567 25.862C286.567 26.5953 286.714 27.2407 287.007 27.798C287.315 28.3407 287.711 28.7587 288.195 29.052C288.694 29.3453 289.222 29.492 289.779 29.492C290.351 29.492 290.887 29.3527 291.385 29.074C291.884 28.7807 292.28 28.37 292.573 27.842C292.867 27.2993 293.013 26.654 293.013 25.906ZM300.685 18.36C300.143 18.36 299.688 18.1913 299.321 17.854C298.969 17.502 298.793 17.0693 298.793 16.556C298.793 16.0427 298.969 15.6173 299.321 15.28C299.688 14.928 300.143 14.752 300.685 14.752C301.228 14.752 301.675 14.928 302.027 15.28C302.394 15.6173 302.577 16.0427 302.577 16.556C302.577 17.0693 302.394 17.502 302.027 17.854C301.675 18.1913 301.228 18.36 300.685 18.36ZM302.203 19.812V32H299.123V19.812H302.203ZM309.911 32.198C308.913 32.198 308.019 32.022 307.227 31.67C306.435 31.3033 305.804 30.812 305.335 30.196C304.88 29.58 304.631 28.898 304.587 28.15H307.689C307.747 28.6193 307.975 29.008 308.371 29.316C308.781 29.624 309.287 29.778 309.889 29.778C310.475 29.778 310.93 29.6607 311.253 29.426C311.59 29.1913 311.759 28.8907 311.759 28.524C311.759 28.128 311.553 27.8347 311.143 27.644C310.747 27.4387 310.109 27.2187 309.229 26.984C308.319 26.764 307.571 26.5367 306.985 26.302C306.413 26.0673 305.914 25.708 305.489 25.224C305.078 24.74 304.873 24.0873 304.873 23.266C304.873 22.5913 305.063 21.9753 305.445 21.418C305.841 20.8607 306.398 20.4207 307.117 20.098C307.85 19.7753 308.708 19.614 309.691 19.614C311.143 19.614 312.301 19.9807 313.167 20.714C314.032 21.4327 314.509 22.408 314.597 23.64H311.649C311.605 23.156 311.399 22.7747 311.033 22.496C310.681 22.2027 310.204 22.056 309.603 22.056C309.045 22.056 308.613 22.1587 308.305 22.364C308.011 22.5693 307.865 22.8553 307.865 23.222C307.865 23.6327 308.07 23.948 308.481 24.168C308.891 24.3733 309.529 24.586 310.395 24.806C311.275 25.026 312.001 25.2533 312.573 25.488C313.145 25.7227 313.636 26.0893 314.047 26.588C314.472 27.072 314.692 27.7173 314.707 28.524C314.707 29.228 314.509 29.8587 314.113 30.416C313.731 30.9733 313.174 31.4133 312.441 31.736C311.722 32.044 310.879 32.198 309.911 32.198ZM320.821 22.342V28.238C320.821 28.6487 320.916 28.9493 321.107 29.14C321.312 29.316 321.649 29.404 322.119 29.404H323.549V32H321.613C319.017 32 317.719 30.7387 317.719 28.216V22.342H316.267V19.812H317.719V16.798H320.821V19.812H323.549V22.342H320.821ZM328.844 21.704C329.24 21.0587 329.753 20.5527 330.384 20.186C331.029 19.8193 331.763 19.636 332.584 19.636V22.87H331.77C330.802 22.87 330.069 23.0973 329.57 23.552C329.086 24.0067 328.844 24.7987 328.844 25.928V32H325.764V19.812H328.844V21.704ZM333.867 25.862C333.867 24.63 334.109 23.5373 334.593 22.584C335.091 21.6307 335.759 20.8973 336.595 20.384C337.445 19.8707 338.391 19.614 339.433 19.614C340.342 19.614 341.134 19.7973 341.809 20.164C342.498 20.5307 343.048 20.9927 343.459 21.55V19.812H346.561V32H343.459V30.218C343.063 30.79 342.513 31.2667 341.809 31.648C341.119 32.0147 340.32 32.198 339.411 32.198C338.384 32.198 337.445 31.934 336.595 31.406C335.759 30.878 335.091 30.1373 334.593 29.184C334.109 28.216 333.867 27.1087 333.867 25.862ZM343.459 25.906C343.459 25.158 343.312 24.52 343.019 23.992C342.725 23.4493 342.329 23.0387 341.831 22.76C341.332 22.4667 340.797 22.32 340.225 22.32C339.653 22.32 339.125 22.4593 338.641 22.738C338.157 23.0167 337.761 23.4273 337.453 23.97C337.159 24.498 337.013 25.1287 337.013 25.862C337.013 26.5953 337.159 27.2407 337.453 27.798C337.761 28.3407 338.157 28.7587 338.641 29.052C339.139 29.3453 339.667 29.492 340.225 29.492C340.797 29.492 341.332 29.3527 341.831 29.074C342.329 28.7807 342.725 28.37 343.019 27.842C343.312 27.2993 343.459 26.654 343.459 25.906ZM353.155 22.342V28.238C353.155 28.6487 353.25 28.9493 353.441 29.14C353.646 29.316 353.983 29.404 354.453 29.404H355.883V32H353.947C351.351 32 350.053 30.7387 350.053 28.216V22.342H348.601V19.812H350.053V16.798H353.155V19.812H355.883V22.342H353.155ZM359.66 18.36C359.117 18.36 358.663 18.1913 358.296 17.854C357.944 17.502 357.768 17.0693 357.768 16.556C357.768 16.0427 357.944 15.6173 358.296 15.28C358.663 14.928 359.117 14.752 359.66 14.752C360.203 14.752 360.65 14.928 361.002 15.28C361.369 15.6173 361.552 16.0427 361.552 16.556C361.552 17.0693 361.369 17.502 361.002 17.854C360.65 18.1913 360.203 18.36 359.66 18.36ZM361.178 19.812V32H358.098V19.812H361.178ZM369.633 32.198C368.46 32.198 367.404 31.9413 366.465 31.428C365.526 30.9 364.786 30.1593 364.243 29.206C363.715 28.2527 363.451 27.1527 363.451 25.906C363.451 24.6593 363.722 23.5593 364.265 22.606C364.822 21.6527 365.578 20.9193 366.531 20.406C367.484 19.878 368.548 19.614 369.721 19.614C370.894 19.614 371.958 19.878 372.911 20.406C373.864 20.9193 374.612 21.6527 375.155 22.606C375.712 23.5593 375.991 24.6593 375.991 25.906C375.991 27.1527 375.705 28.2527 375.133 29.206C374.576 30.1593 373.813 30.9 372.845 31.428C371.892 31.9413 370.821 32.198 369.633 32.198ZM369.633 29.514C370.19 29.514 370.711 29.382 371.195 29.118C371.694 28.8393 372.09 28.4287 372.383 27.886C372.676 27.3433 372.823 26.6833 372.823 25.906C372.823 24.7473 372.515 23.86 371.899 23.244C371.298 22.6133 370.557 22.298 369.677 22.298C368.797 22.298 368.056 22.6133 367.455 23.244C366.868 23.86 366.575 24.7473 366.575 25.906C366.575 27.0647 366.861 27.9593 367.433 28.59C368.02 29.206 368.753 29.514 369.633 29.514ZM385.004 19.636C386.456 19.636 387.63 20.098 388.524 21.022C389.419 21.9313 389.866 23.2073 389.866 24.85V32H386.786V25.268C386.786 24.3 386.544 23.5593 386.06 23.046C385.576 22.518 384.916 22.254 384.08 22.254C383.23 22.254 382.555 22.518 382.056 23.046C381.572 23.5593 381.33 24.3 381.33 25.268V32H378.25V19.812H381.33V21.33C381.741 20.802 382.262 20.3913 382.892 20.098C383.538 19.79 384.242 19.636 385.004 19.636Z" fill="white"/>
</svg>
