<svg width="136" height="60" viewBox="0 0 136 60" fill="none" xmlns="http://www.w3.org/2000/svg">
    <rect width="136" height="60" rx="10" fill="#76EADA" fill-opacity="0.6"/>
    <path d="M42.5 37H40.68L33.36 25.9V37H31.54V23.04H33.36L40.68 34.12V23.04H42.5V37ZM55.6025 31.1C55.6025 31.4467 55.5825 31.8133 55.5425 32.2H46.7825C46.8492 33.28 47.2158 34.1267 47.8825 34.74C48.5625 35.34 49.3825 35.64 50.3425 35.64C51.1292 35.64 51.7825 35.46 52.3025 35.1C52.8358 34.7267 53.2092 34.2333 53.4225 33.62H55.3825C55.0892 34.6733 54.5025 35.5333 53.6225 36.2C52.7425 36.8533 51.6492 37.18 50.3425 37.18C49.3025 37.18 48.3692 36.9467 47.5425 36.48C46.7292 36.0133 46.0892 35.3533 45.6225 34.5C45.1558 33.6333 44.9225 32.6333 44.9225 31.5C44.9225 30.3667 45.1492 29.3733 45.6025 28.52C46.0558 27.6667 46.6892 27.0133 47.5025 26.56C48.3292 26.0933 49.2758 25.86 50.3425 25.86C51.3825 25.86 52.3025 26.0867 53.1025 26.54C53.9025 26.9933 54.5158 27.62 54.9425 28.42C55.3825 29.2067 55.6025 30.1 55.6025 31.1ZM53.7225 30.72C53.7225 30.0267 53.5692 29.4333 53.2625 28.94C52.9558 28.4333 52.5358 28.0533 52.0025 27.8C51.4825 27.5333 50.9025 27.4 50.2625 27.4C49.3425 27.4 48.5558 27.6933 47.9025 28.28C47.2625 28.8667 46.8958 29.68 46.8025 30.72H53.7225ZM63.7248 37L61.1248 32.92L58.6248 37H56.7248L60.2648 31.56L56.7248 26.04H58.7848L61.3848 30.1L63.8648 26.04H65.7648L62.2448 31.46L65.7848 37H63.7248ZM69.7952 27.54V34C69.7952 34.5333 69.9085 34.9133 70.1352 35.14C70.3618 35.3533 70.7552 35.46 71.3152 35.46H72.6552V37H71.0152C70.0018 37 69.2418 36.7667 68.7352 36.3C68.2285 35.8333 67.9752 35.0667 67.9752 34V27.54H66.5552V26.04H67.9752V23.28H69.7952V26.04H72.6552V27.54H69.7952Z" fill="white"/>
    <path d="M88 20L98 30L88 40" stroke="white" stroke-width="2"/>
</svg>
