<svg width="200" height="60" viewBox="0 0 200 60" fill="none" xmlns="http://www.w3.org/2000/svg">
    <rect width="200" height="60" rx="10" fill="#76EADA" fill-opacity="0.6"/>
    <path d="M38.14 23.1V37H35.86V27.48L31.62 37H30.04L25.78 27.48V37H23.5V23.1H25.96L30.84 34L35.7 23.1H38.14ZM40.3767 31.44C40.3767 30.3333 40.6034 29.3533 41.0567 28.5C41.5234 27.6467 42.1501 26.9867 42.9367 26.52C43.7367 26.04 44.6167 25.8 45.5767 25.8C46.4434 25.8 47.1967 25.9733 47.8367 26.32C48.4901 26.6533 49.0101 27.0733 49.3967 27.58V25.98H51.6967V37H49.3967V35.36C49.0101 35.88 48.4834 36.3133 47.8167 36.66C47.1501 37.0067 46.3901 37.18 45.5367 37.18C44.5901 37.18 43.7234 36.94 42.9367 36.46C42.1501 35.9667 41.5234 35.2867 41.0567 34.42C40.6034 33.54 40.3767 32.5467 40.3767 31.44ZM49.3967 31.48C49.3967 30.72 49.2367 30.06 48.9167 29.5C48.6101 28.94 48.2034 28.5133 47.6967 28.22C47.1901 27.9267 46.6434 27.78 46.0567 27.78C45.4701 27.78 44.9234 27.9267 44.4167 28.22C43.9101 28.5 43.4967 28.92 43.1767 29.48C42.8701 30.0267 42.7167 30.68 42.7167 31.44C42.7167 32.2 42.8701 32.8667 43.1767 33.44C43.4967 34.0133 43.9101 34.4533 44.4167 34.76C44.9367 35.0533 45.4834 35.2 46.0567 35.2C46.6434 35.2 47.1901 35.0533 47.6967 34.76C48.2034 34.4667 48.6101 34.04 48.9167 33.48C49.2367 32.9067 49.3967 32.24 49.3967 31.48ZM59.0514 31.5L64.1314 37H61.0514L56.9714 32.26V37H54.6914V22.2H56.9714V30.8L60.9714 25.98H64.1314L59.0514 31.5ZM75.8656 31.22C75.8656 31.6333 75.839 32.0067 75.7856 32.34H67.3656C67.4323 33.22 67.759 33.9267 68.3456 34.46C68.9323 34.9933 69.6523 35.26 70.5056 35.26C71.7323 35.26 72.599 34.7467 73.1056 33.72H75.5656C75.2323 34.7333 74.6256 35.5667 73.7456 36.22C72.879 36.86 71.799 37.18 70.5056 37.18C69.4523 37.18 68.5056 36.9467 67.6656 36.48C66.839 36 66.1856 35.3333 65.7056 34.48C65.239 33.6133 65.0056 32.6133 65.0056 31.48C65.0056 30.3467 65.2323 29.3533 65.6856 28.5C66.1523 27.6333 66.799 26.9667 67.6256 26.5C68.4656 26.0333 69.4256 25.8 70.5056 25.8C71.5456 25.8 72.4723 26.0267 73.2856 26.48C74.099 26.9333 74.7323 27.5733 75.1856 28.4C75.639 29.2133 75.8656 30.1533 75.8656 31.22ZM73.4856 30.5C73.4723 29.66 73.1723 28.9867 72.5856 28.48C71.999 27.9733 71.2723 27.72 70.4056 27.72C69.619 27.72 68.9456 27.9733 68.3856 28.48C67.8256 28.9733 67.4923 29.6467 67.3856 30.5H73.4856ZM93.0247 27.24C93.0247 27.9467 92.858 28.6133 92.5247 29.24C92.1914 29.8667 91.658 30.38 90.9247 30.78C90.1914 31.1667 89.2514 31.36 88.1047 31.36H85.5847V37H83.3047V23.1H88.1047C89.1714 23.1 90.0714 23.2867 90.8047 23.66C91.5514 24.02 92.1047 24.5133 92.4647 25.14C92.838 25.7667 93.0247 26.4667 93.0247 27.24ZM88.1047 29.5C88.9714 29.5 89.618 29.3067 90.0447 28.92C90.4714 28.52 90.6847 27.96 90.6847 27.24C90.6847 25.72 89.8247 24.96 88.1047 24.96H85.5847V29.5H88.1047ZM94.4392 31.44C94.4392 30.3333 94.6659 29.3533 95.1192 28.5C95.5859 27.6467 96.2126 26.9867 96.9992 26.52C97.7992 26.04 98.6792 25.8 99.6392 25.8C100.506 25.8 101.259 25.9733 101.899 26.32C102.553 26.6533 103.073 27.0733 103.459 27.58V25.98H105.759V37H103.459V35.36C103.073 35.88 102.546 36.3133 101.879 36.66C101.213 37.0067 100.453 37.18 99.5992 37.18C98.6526 37.18 97.7859 36.94 96.9992 36.46C96.2126 35.9667 95.5859 35.2867 95.1192 34.42C94.6659 33.54 94.4392 32.5467 94.4392 31.44ZM103.459 31.48C103.459 30.72 103.299 30.06 102.979 29.5C102.673 28.94 102.266 28.5133 101.759 28.22C101.253 27.9267 100.706 27.78 100.119 27.78C99.5326 27.78 98.9859 27.9267 98.4792 28.22C97.9726 28.5 97.5592 28.92 97.2392 29.48C96.9326 30.0267 96.7792 30.68 96.7792 31.44C96.7792 32.2 96.9326 32.8667 97.2392 33.44C97.5592 34.0133 97.9726 34.4533 98.4792 34.76C98.9992 35.0533 99.5459 35.2 100.119 35.2C100.706 35.2 101.253 35.0533 101.759 34.76C102.266 34.4667 102.673 34.04 102.979 33.48C103.299 32.9067 103.459 32.24 103.459 31.48ZM118.674 25.98L111.914 42.18H109.554L111.794 36.82L107.454 25.98H109.994L113.094 34.38L116.314 25.98H118.674ZM133.735 25.8C134.601 25.8 135.375 25.98 136.055 26.34C136.748 26.7 137.288 27.2333 137.675 27.94C138.075 28.6467 138.275 29.5 138.275 30.5V37H136.015V30.84C136.015 29.8533 135.768 29.1 135.275 28.58C134.781 28.0467 134.108 27.78 133.255 27.78C132.401 27.78 131.721 28.0467 131.215 28.58C130.721 29.1 130.475 29.8533 130.475 30.84V37H128.215V30.84C128.215 29.8533 127.968 29.1 127.475 28.58C126.981 28.0467 126.308 27.78 125.455 27.78C124.601 27.78 123.921 28.0467 123.415 28.58C122.921 29.1 122.675 29.8533 122.675 30.84V37H120.395V25.98H122.675V27.24C123.048 26.7867 123.521 26.4333 124.095 26.18C124.668 25.9267 125.281 25.8 125.935 25.8C126.815 25.8 127.601 25.9867 128.295 26.36C128.988 26.7333 129.521 27.2733 129.895 27.98C130.228 27.3133 130.748 26.7867 131.455 26.4C132.161 26 132.921 25.8 133.735 25.8ZM151.276 31.22C151.276 31.6333 151.249 32.0067 151.196 32.34H142.776C142.842 33.22 143.169 33.9267 143.756 34.46C144.342 34.9933 145.062 35.26 145.916 35.26C147.142 35.26 148.009 34.7467 148.516 33.72H150.976C150.642 34.7333 150.036 35.5667 149.156 36.22C148.289 36.86 147.209 37.18 145.916 37.18C144.862 37.18 143.916 36.9467 143.076 36.48C142.249 36 141.596 35.3333 141.116 34.48C140.649 33.6133 140.416 32.6133 140.416 31.48C140.416 30.3467 140.642 29.3533 141.096 28.5C141.562 27.6333 142.209 26.9667 143.036 26.5C143.876 26.0333 144.836 25.8 145.916 25.8C146.956 25.8 147.882 26.0267 148.696 26.48C149.509 26.9333 150.142 27.5733 150.596 28.4C151.049 29.2133 151.276 30.1533 151.276 31.22ZM148.896 30.5C148.882 29.66 148.582 28.9867 147.996 28.48C147.409 27.9733 146.682 27.72 145.816 27.72C145.029 27.72 144.356 27.9733 143.796 28.48C143.236 28.9733 142.902 29.6467 142.796 30.5H148.896ZM159.08 25.8C159.946 25.8 160.72 25.98 161.4 26.34C162.093 26.7 162.633 27.2333 163.02 27.94C163.406 28.6467 163.6 29.5 163.6 30.5V37H161.34V30.84C161.34 29.8533 161.093 29.1 160.6 28.58C160.106 28.0467 159.433 27.78 158.58 27.78C157.726 27.78 157.046 28.0467 156.54 28.58C156.046 29.1 155.8 29.8533 155.8 30.84V37H153.52V25.98H155.8V27.24C156.173 26.7867 156.646 26.4333 157.22 26.18C157.806 25.9267 158.426 25.8 159.08 25.8ZM169.168 27.84V33.94C169.168 34.3533 169.261 34.6533 169.448 34.84C169.648 35.0133 169.981 35.1 170.448 35.1H171.848V37H170.048C169.021 37 168.234 36.76 167.688 36.28C167.141 35.8 166.868 35.02 166.868 33.94V27.84H165.568V25.98H166.868V23.24H169.168V25.98H171.848V27.84H169.168Z" fill="white"/>
</svg>
