<svg width="136" height="60" viewBox="0 0 136 60" fill="none" xmlns="http://www.w3.org/2000/svg">
    <rect width="136" height="60" rx="10" fill="#76EADA" fill-opacity="0.6"/>
    <path d="M35.88 37L32.56 31.3H30.36V37H28.54V23.06H33.04C34.0933 23.06 34.98 23.24 35.7 23.6C36.4333 23.96 36.98 24.4467 37.34 25.06C37.7 25.6733 37.88 26.3733 37.88 27.16C37.88 28.12 37.6 28.9667 37.04 29.7C36.4933 30.4333 35.6667 30.92 34.56 31.16L38.06 37H35.88ZM30.36 29.84H33.04C34.0267 29.84 34.7667 29.6 35.26 29.12C35.7533 28.6267 36 27.9733 36 27.16C36 26.3333 35.7533 25.6933 35.26 25.24C34.78 24.7867 34.04 24.56 33.04 24.56H30.36V29.84ZM50.708 31.1C50.708 31.4467 50.688 31.8133 50.648 32.2H41.888C41.9546 33.28 42.3213 34.1267 42.988 34.74C43.668 35.34 44.488 35.64 45.448 35.64C46.2346 35.64 46.888 35.46 47.408 35.1C47.9413 34.7267 48.3146 34.2333 48.528 33.62H50.488C50.1946 34.6733 49.608 35.5333 48.728 36.2C47.848 36.8533 46.7546 37.18 45.448 37.18C44.408 37.18 43.4746 36.9467 42.648 36.48C41.8346 36.0133 41.1946 35.3533 40.728 34.5C40.2613 33.6333 40.028 32.6333 40.028 31.5C40.028 30.3667 40.2546 29.3733 40.708 28.52C41.1613 27.6667 41.7946 27.0133 42.608 26.56C43.4346 26.0933 44.3813 25.86 45.448 25.86C46.488 25.86 47.408 26.0867 48.208 26.54C49.008 26.9933 49.6213 27.62 50.048 28.42C50.488 29.2067 50.708 30.1 50.708 31.1ZM48.828 30.72C48.828 30.0267 48.6746 29.4333 48.368 28.94C48.0613 28.4333 47.6413 28.0533 47.108 27.8C46.588 27.5333 46.008 27.4 45.368 27.4C44.448 27.4 43.6613 27.6933 43.008 28.28C42.368 28.8667 42.0013 29.68 41.908 30.72H48.828ZM66.2903 25.84C67.1436 25.84 67.9036 26.02 68.5703 26.38C69.237 26.7267 69.7636 27.2533 70.1503 27.96C70.537 28.6667 70.7303 29.5267 70.7303 30.54V37H68.9303V30.8C68.9303 29.7067 68.657 28.8733 68.1103 28.3C67.577 27.7133 66.8503 27.42 65.9303 27.42C64.9836 27.42 64.2303 27.7267 63.6703 28.34C63.1103 28.94 62.8303 29.8133 62.8303 30.96V37H61.0303V30.8C61.0303 29.7067 60.757 28.8733 60.2103 28.3C59.677 27.7133 58.9503 27.42 58.0303 27.42C57.0836 27.42 56.3303 27.7267 55.7703 28.34C55.2103 28.94 54.9303 29.8133 54.9303 30.96V37H53.1103V26.04H54.9303V27.62C55.2903 27.0467 55.7703 26.6067 56.3703 26.3C56.9836 25.9933 57.657 25.84 58.3903 25.84C59.3103 25.84 60.1236 26.0467 60.8303 26.46C61.537 26.8733 62.0636 27.48 62.4103 28.28C62.717 27.5067 63.2236 26.9067 63.9303 26.48C64.637 26.0533 65.4236 25.84 66.2903 25.84ZM78.4958 37.18C77.4691 37.18 76.5358 36.9467 75.6958 36.48C74.8691 36.0133 74.2158 35.3533 73.7358 34.5C73.2691 33.6333 73.0358 32.6333 73.0358 31.5C73.0358 30.38 73.2758 29.3933 73.7558 28.54C74.2491 27.6733 74.9158 27.0133 75.7558 26.56C76.5958 26.0933 77.5358 25.86 78.5758 25.86C79.6158 25.86 80.5558 26.0933 81.3958 26.56C82.2358 27.0133 82.8958 27.6667 83.3758 28.52C83.8691 29.3733 84.1158 30.3667 84.1158 31.5C84.1158 32.6333 83.8624 33.6333 83.3558 34.5C82.8624 35.3533 82.1891 36.0133 81.3358 36.48C80.4824 36.9467 79.5358 37.18 78.4958 37.18ZM78.4958 35.58C79.1491 35.58 79.7624 35.4267 80.3358 35.12C80.9091 34.8133 81.3691 34.3533 81.7158 33.74C82.0758 33.1267 82.2558 32.38 82.2558 31.5C82.2558 30.62 82.0824 29.8733 81.7358 29.26C81.3891 28.6467 80.9358 28.1933 80.3758 27.9C79.8158 27.5933 79.2091 27.44 78.5558 27.44C77.8891 27.44 77.2758 27.5933 76.7158 27.9C76.1691 28.1933 75.7291 28.6467 75.3958 29.26C75.0624 29.8733 74.8958 30.62 74.8958 31.5C74.8958 32.3933 75.0558 33.1467 75.3758 33.76C75.7091 34.3733 76.1491 34.8333 76.6958 35.14C77.2424 35.4333 77.8424 35.58 78.4958 35.58ZM90.5888 35.32L93.9888 26.04H95.9288L91.6288 37H89.5088L85.2088 26.04H87.1688L90.5888 35.32ZM107.72 31.1C107.72 31.4467 107.7 31.8133 107.66 32.2H98.8997C98.9664 33.28 99.333 34.1267 99.9997 34.74C100.68 35.34 101.5 35.64 102.46 35.64C103.246 35.64 103.9 35.46 104.42 35.1C104.953 34.7267 105.326 34.2333 105.54 33.62H107.5C107.206 34.6733 106.62 35.5333 105.74 36.2C104.86 36.8533 103.766 37.18 102.46 37.18C101.42 37.18 100.486 36.9467 99.6597 36.48C98.8464 36.0133 98.2064 35.3533 97.7397 34.5C97.273 33.6333 97.0397 32.6333 97.0397 31.5C97.0397 30.3667 97.2664 29.3733 97.7197 28.52C98.173 27.6667 98.8064 27.0133 99.6197 26.56C100.446 26.0933 101.393 25.86 102.46 25.86C103.5 25.86 104.42 26.0867 105.22 26.54C106.02 26.9933 106.633 27.62 107.06 28.42C107.5 29.2067 107.72 30.1 107.72 31.1ZM105.84 30.72C105.84 30.0267 105.686 29.4333 105.38 28.94C105.073 28.4333 104.653 28.0533 104.12 27.8C103.6 27.5333 103.02 27.4 102.38 27.4C101.46 27.4 100.673 27.6933 100.02 28.28C99.3797 28.8667 99.013 29.68 98.9197 30.72H105.84Z" fill="white"/>
</svg>
