<svg width="136" height="60" viewBox="0 0 136 60" fill="none" xmlns="http://www.w3.org/2000/svg">
    <rect width="136" height="60" rx="10" fill="rgba(27, 68, 82)" fill-opacity="1"/>
    <path d="M39.08 37.14C38.1467 37.14 37.3067 36.98 36.56 36.66C35.8133 36.3267 35.2267 35.86 34.8 35.26C34.3733 34.66 34.16 33.96 34.16 33.16H36.6C36.6533 33.76 36.8867 34.2533 37.3 34.64C37.7267 35.0267 38.32 35.22 39.08 35.22C39.8667 35.22 40.48 35.0333 40.92 34.66C41.36 34.2733 41.58 33.78 41.58 33.18C41.58 32.7133 41.44 32.3333 41.16 32.04C40.8933 31.7467 40.5533 31.52 40.14 31.36C39.74 31.2 39.18 31.0267 38.46 30.84C37.5533 30.6 36.8133 30.36 36.24 30.12C35.68 29.8667 35.2 29.48 34.8 28.96C34.4 28.44 34.2 27.7467 34.2 26.88C34.2 26.08 34.4 25.38 34.8 24.78C35.2 24.18 35.76 23.72 36.48 23.4C37.2 23.08 38.0333 22.92 38.98 22.92C40.3267 22.92 41.4267 23.26 42.28 23.94C43.1467 24.6067 43.6267 25.5267 43.72 26.7H41.2C41.16 26.1933 40.92 25.76 40.48 25.4C40.04 25.04 39.46 24.86 38.74 24.86C38.0867 24.86 37.5533 25.0267 37.14 25.36C36.7267 25.6933 36.52 26.1733 36.52 26.8C36.52 27.2267 36.6467 27.58 36.9 27.86C37.1667 28.1267 37.5 28.34 37.9 28.5C38.3 28.66 38.8467 28.8333 39.54 29.02C40.46 29.2733 41.2067 29.5267 41.78 29.78C42.3667 30.0333 42.86 30.4267 43.26 30.96C43.6733 31.48 43.88 32.18 43.88 33.06C43.88 33.7667 43.6867 34.4333 43.3 35.06C42.9267 35.6867 42.3733 36.1933 41.64 36.58C40.92 36.9533 40.0667 37.14 39.08 37.14ZM56.5503 25.98V37H54.2703V35.7C53.9103 36.1533 53.437 36.5133 52.8503 36.78C52.277 37.0333 51.6636 37.16 51.0103 37.16C50.1436 37.16 49.3636 36.98 48.6703 36.62C47.9903 36.26 47.4503 35.7267 47.0503 35.02C46.6636 34.3133 46.4703 33.46 46.4703 32.46V25.98H48.7303V32.12C48.7303 33.1067 48.977 33.8667 49.4703 34.4C49.9636 34.92 50.637 35.18 51.4903 35.18C52.3436 35.18 53.017 34.92 53.5103 34.4C54.017 33.8667 54.2703 33.1067 54.2703 32.12V25.98H56.5503ZM61.8386 27.62C62.2253 27.0867 62.7519 26.6533 63.4186 26.32C64.0986 25.9733 64.8519 25.8 65.6786 25.8C66.6519 25.8 67.5319 26.0333 68.3186 26.5C69.1053 26.9667 69.7253 27.6333 70.1786 28.5C70.6319 29.3533 70.8586 30.3333 70.8586 31.44C70.8586 32.5467 70.6319 33.54 70.1786 34.42C69.7253 35.2867 69.0986 35.9667 68.2986 36.46C67.5119 36.94 66.6386 37.18 65.6786 37.18C64.8253 37.18 64.0653 37.0133 63.3986 36.68C62.7453 36.3467 62.2253 35.92 61.8386 35.4V37H59.5586V22.2H61.8386V27.62ZM68.5386 31.44C68.5386 30.68 68.3786 30.0267 68.0586 29.48C67.7519 28.92 67.3386 28.5 66.8186 28.22C66.3119 27.9267 65.7653 27.78 65.1786 27.78C64.6053 27.78 64.0586 27.9267 63.5386 28.22C63.0319 28.5133 62.6186 28.94 62.2986 29.5C61.9919 30.06 61.8386 30.72 61.8386 31.48C61.8386 32.24 61.9919 32.9067 62.2986 33.48C62.6186 34.04 63.0319 34.4667 63.5386 34.76C64.0586 35.0533 64.6053 35.2 65.1786 35.2C65.7653 35.2 66.3119 35.0533 66.8186 34.76C67.3386 34.4533 67.7519 34.0133 68.0586 33.44C68.3786 32.8667 68.5386 32.2 68.5386 31.44ZM86.4533 25.8C87.3199 25.8 88.0933 25.98 88.7733 26.34C89.4666 26.7 90.0066 27.2333 90.3933 27.94C90.7933 28.6467 90.9933 29.5 90.9933 30.5V37H88.7333V30.84C88.7333 29.8533 88.4866 29.1 87.9933 28.58C87.4999 28.0467 86.8266 27.78 85.9733 27.78C85.1199 27.78 84.4399 28.0467 83.9333 28.58C83.4399 29.1 83.1933 29.8533 83.1933 30.84V37H80.9333V30.84C80.9333 29.8533 80.6866 29.1 80.1933 28.58C79.6999 28.0467 79.0266 27.78 78.1733 27.78C77.3199 27.78 76.6399 28.0467 76.1333 28.58C75.6399 29.1 75.3933 29.8533 75.3933 30.84V37H73.1133V25.98H75.3933V27.24C75.7666 26.7867 76.2399 26.4333 76.8133 26.18C77.3866 25.9267 77.9999 25.8 78.6533 25.8C79.5333 25.8 80.3199 25.9867 81.0133 26.36C81.7066 26.7333 82.2399 27.2733 82.6133 27.98C82.9466 27.3133 83.4666 26.7867 84.1733 26.4C84.8799 26 85.6399 25.8 86.4533 25.8ZM95.0545 24.52C94.6412 24.52 94.2945 24.38 94.0145 24.1C93.7345 23.82 93.5945 23.4733 93.5945 23.06C93.5945 22.6467 93.7345 22.3 94.0145 22.02C94.2945 21.74 94.6412 21.6 95.0545 21.6C95.4545 21.6 95.7945 21.74 96.0745 22.02C96.3545 22.3 96.4945 22.6467 96.4945 23.06C96.4945 23.4733 96.3545 23.82 96.0745 24.1C95.7945 24.38 95.4545 24.52 95.0545 24.52ZM96.1745 25.98V37H93.8945V25.98H96.1745ZM101.828 27.84V33.94C101.828 34.3533 101.921 34.6533 102.108 34.84C102.308 35.0133 102.641 35.1 103.108 35.1H104.508V37H102.708C101.681 37 100.895 36.76 100.348 36.28C99.8013 35.8 99.528 35.02 99.528 33.94V27.84H98.228V25.98H99.528V23.24H101.828V25.98H104.508V27.84H101.828Z" fill="white"/>
</svg>
