<svg width="100" height="100" viewBox="0 0 100 100" fill="none" xmlns="http://www.w3.org/2000/svg">
    <path fill-rule="evenodd" clip-rule="evenodd" d="M16.8571 9.71429C17.3571 9.21429 18.0428 8.92857 18.75 8.92857H62.4357L83.9285 30.4214V88.3929C83.9285 89.1033 83.6463 89.7846 83.144 90.2869C82.6417 90.7892 81.9604 91.0714 81.25 91.0714H18.75C18.0396 91.0714 17.3583 90.7892 16.8559 90.2869C16.3536 89.7846 16.0714 89.1033 16.0714 88.3929V11.6071C16.0714 10.8929 16.3571 10.2143 16.8571 9.71429ZM18.75 0C15.6716 0 12.7192 1.22289 10.5425 3.39965C8.36571 5.57642 7.14282 8.52874 7.14282 11.6071V88.3929C7.14282 89.9171 7.44305 91.4265 8.02636 92.8347C8.60968 94.243 9.46465 95.5225 10.5425 96.6003C11.6203 97.6782 12.8999 98.5331 14.3081 99.1165C15.7163 99.6998 17.2257 100 18.75 100H81.25C82.7742 100 84.2836 99.6998 85.6918 99.1165C87.1001 98.5331 88.3796 97.6782 89.4575 96.6003C90.5353 95.5225 91.3903 94.243 91.9736 92.8347C92.5569 91.4265 92.8571 89.9171 92.8571 88.3929V28.5714C92.8534 27.3881 92.3838 26.2539 91.55 25.4143L67.4428 1.30714C66.6032 0.473276 65.469 0.00366709 64.2857 0L18.75 0ZM50 27.6786C51.1857 27.6786 52.3214 28.15 53.1571 28.9857L67.4428 43.2714C68.0673 43.8958 68.4926 44.6913 68.665 45.5574C68.8373 46.4235 68.7489 47.3212 68.4109 48.1371C68.073 48.9529 67.5006 49.6502 66.7663 50.1408C66.032 50.6313 65.1687 50.893 64.2857 50.8929H54.4642V71.4286C54.4642 72.6126 53.9939 73.7481 53.1567 74.5853C52.3195 75.4225 51.184 75.8929 50 75.8929C48.816 75.8929 47.6805 75.4225 46.8432 74.5853C46.006 73.7481 45.5357 72.6126 45.5357 71.4286V50.8929H35.7142C34.8312 50.893 33.9679 50.6313 33.2336 50.1408C32.4993 49.6502 31.927 48.9529 31.589 48.1371C31.251 47.3212 31.1626 46.4235 31.335 45.5574C31.5073 44.6913 31.9326 43.8958 32.5571 43.2714L46.8428 28.9857C47.6824 28.1518 48.8167 27.6822 50 27.6786Z" fill="#76EADA" fill-opacity="0.8"/>
</svg>
