<svg width="482" height="30" viewBox="0 0 482 30" fill="none" xmlns="http://www.w3.org/2000/svg">
    <circle cx="467" cy="15" r="15" fill="#76EADA" fill-opacity="0.8"/>
    <line x1="30" y1="14.5" x2="113" y2="14.5" stroke="white"/>
    <line x1="143" y1="14.5" x2="224" y2="14.5" stroke="white"/>
    <line x1="254" y1="14.5" x2="339" y2="14.5" stroke="white"/>
    <line x1="368" y1="14.5" x2="452" y2="14.5" stroke="white"/>
    <circle cx="353" cy="15" r="14.5" stroke="#76EADA"/>
    <path d="M350.55 20.3081L345.58 15.3381L346.294 14.6251L350.55 18.8811L359.706 9.7251L360.419 10.4391L350.55 20.3081Z" fill="#76EADA"/>
    <circle cx="239" cy="15" r="14.5" stroke="#76EADA"/>
    <path d="M236.55 20.3081L231.58 15.3381L232.294 14.6251L236.55 18.8811L245.706 9.7251L246.419 10.4391L236.55 20.3081Z" fill="#76EADA"/>
    <circle cx="128" cy="15" r="14.5" stroke="#76EADA"/>
    <path d="M125.55 20.3081L120.58 15.3381L121.294 14.6251L125.55 18.8811L134.706 9.7251L135.419 10.4391L125.55 20.3081Z" fill="#76EADA"/>
    <circle cx="15" cy="15" r="14.5" stroke="#76EADA"/>
    <path d="M12.5501 20.3081L7.58008 15.3381L8.29408 14.6251L12.5501 18.8811L21.7061 9.7251L22.4191 10.4391L12.5501 20.3081Z" fill="#76EADA"/>
</svg>
