<svg width="480" height="30" viewBox="0 0 480 30" fill="none" xmlns="http://www.w3.org/2000/svg">
    <circle cx="352" cy="15" r="15" fill="#76EADA" fill-opacity="0.8"/>
    <circle cx="465" cy="15" r="15" fill="#76EADA" fill-opacity="0.8"/>
    <line x1="29" y1="14.5" x2="111" y2="14.5" stroke="white"/>
    <line x1="141" y1="14.5" x2="222" y2="14.5" stroke="white"/>
    <line x1="252" y1="14.5" x2="337" y2="14.5" stroke="white"/>
    <line x1="367" y1="14.5" x2="450" y2="14.5" stroke="white"/>
    <circle cx="237" cy="15" r="14.5" stroke="#76EADA"/>
    <path d="M234.55 20.3081L229.58 15.3381L230.294 14.6251L234.55 18.8811L243.706 9.7251L244.419 10.4391L234.55 20.3081Z" fill="#76EADA"/>
    <circle cx="126" cy="15" r="14.5" stroke="#76EADA"/>
    <path d="M123.55 20.3081L118.58 15.3381L119.294 14.6251L123.55 18.8811L132.706 9.7251L133.419 10.4391L123.55 20.3081Z" fill="#76EADA"/>
    <circle cx="15" cy="15" r="14.5" stroke="#76EADA"/>
    <path d="M12.5501 20.3081L7.58008 15.3381L8.29408 14.6251L12.5501 18.8811L21.7061 9.7251L22.4191 10.4391L12.5501 20.3081Z" fill="#76EADA"/>
</svg>
