<svg width="486" height="30" viewBox="0 0 486 30" fill="none" xmlns="http://www.w3.org/2000/svg">
    <line x1="30" y1="14.5" x2="113" y2="14.5" stroke="rgba(27, 68, 82)"/>
    <line x1="143" y1="14.5" x2="224" y2="14.5" stroke="rgba(27, 68, 82)"/>
    <line x1="254" y1="14.5" x2="339" y2="14.5" stroke="rgba(27, 68, 82)"/>
    <line x1="369" y1="14.5" x2="456" y2="14.5" stroke="rgba(27, 68, 82)"/>
    <circle cx="471" cy="15" r="14.5" stroke="rgba(27, 68, 82)"/>
    <path d="M468.55 20.3081L463.58 15.3381L464.294 14.6251L468.55 18.8811L477.706 9.7251L478.419 10.4391L468.55 20.3081Z" fill="rgba(27, 68, 82)"/>
    <circle cx="354" cy="15" r="14.5" stroke="rgba(27, 68, 82)"/>
    <path d="M351.55 20.3081L346.58 15.3381L347.294 14.6251L351.55 18.8811L360.706 9.7251L361.419 10.4391L351.55 20.3081Z" fill="rgba(27, 68, 82)"/>
    <circle cx="239" cy="15" r="14.5" stroke="rgba(27, 68, 82)"/>
    <path d="M236.55 20.3081L231.58 15.3381L232.294 14.6251L236.55 18.8811L245.706 9.7251L246.419 10.4391L236.55 20.3081Z" fill="rgba(27, 68, 82)"/>
    <circle cx="128" cy="15" r="14.5" stroke="rgba(27, 68, 82)"/>
    <path d="M125.55 20.3081L120.58 15.3381L121.294 14.6251L125.55 18.8811L134.706 9.7251L135.419 10.4391L125.55 20.3081Z" fill="rgba(27, 68, 82)"/>
    <circle cx="15" cy="15" r="14.5" stroke="rgba(27, 68, 82)"/>
    <path d="M12.5501 20.3081L7.58008 15.3381L8.29408 14.6251L12.5501 18.8811L21.7061 9.7251L22.4191 10.4391L12.5501 20.3081Z" fill="rgba(27, 68, 82)"/>
</svg>
